<?xml version="1.0" encoding="utf-8"?>
<!-- Generator: Adobe Illustrator 20.1.0, SVG Export Plug-In . SVG Version: 6.00 Build 0)  -->
<svg version="1.1" id="Capa_1" xmlns="http://www.w3.org/2000/svg" xmlns:xlink="http://www.w3.org/1999/xlink" x="0px" y="0px"
	 viewBox="0 0 376 300" style="enable-background:new 0 0 376 300;" xml:space="preserve">
<style type="text/css">
	.st0{fill-rule:evenodd;clip-rule:evenodd;fill:#FFFFFF;}
	.st1{fill-rule:evenodd;clip-rule:evenodd;fill:#929497;}
</style>
<g>
	<path class="st0" d="M300.4,271.4c1.9,0,2.8-0.7,2.8-2c0-1.5-1-2.2-2.8-2.2h-12.1c-2.5,0-3.8-0.7-3.8-2.1v-7.5c0-1.3,1-1.9,3.1-1.9
		h12.8c1.9,0,3-0.8,3-2.1c0-1.4-1-2-3-2h-12.4c-6.4,0-9.7,2-9.7,6.1v7.6c0,4.1,3.6,6.2,10.6,6.2H300.4z"/>
	<path class="st0" d="M250.5,260.2h18.1v-2.7c0-1.7-1.3-2.5-3.9-2.5h-9.1c-3.4,0-5.1,0.9-5.1,2.6V260.2z M273.2,257.1
		c0-3.8-3.1-5.6-9.2-5.6h-7.6c-7.1,0-10.7,2.1-10.7,6.4v7.1c0,4.3,3.6,6.4,10.9,6.4h2.8c1.9,0,2.8-0.7,2.8-2.1c0-1.4-1-2.1-2.8-2.1
		h-3.7c-2.5,0-3.7-0.6-3.7-1.8v-1.6h18.5c2,0,2.9-0.8,2.9-2.3V257.1z"/>
	<path class="st0" d="M240.6,264.7c0-3.6-2.9-5.5-8.7-5.5h-8c-1.6,0-2.5-0.4-2.5-1.3v-1.2c0-0.7,0.6-1,1.9-1h4.7
		c1.9,0,2.8-0.7,2.8-2.1c0-1.4-1-2.1-2.8-2.1h-4c-5.8,0-8.8,1.7-8.8,5.2v1.3c0,3.6,3.1,5.4,9.2,5.4h7.9c1.4,0,2,0.5,2,1.4v1.1
		c0,1-0.6,1.4-1.6,1.4h-14.8c-1.9,0-2.8,0.7-2.8,2.1c0,1.4,0.9,2.1,2.8,2.1h14.2c5.6,0,8.5-1.9,8.5-5.6V264.7z"/>
	<path class="st0" d="M205,257.6c0-1.8-1.6-2.7-4.8-2.7h-7.7c-3.4,0-5.1,1-5.1,3v7.1c0,1.9,1.7,2.8,5.1,2.8h7.7
		c3.2,0,4.8-0.9,4.8-2.8V257.6z M209.8,257.9c0-4.3-3.4-6.4-10.1-6.4H193c-7,0-10.4,2.1-10.4,6.5v7.1c0,4.2,3.4,6.3,10.3,6.3h6.8
		c6.7,0,10.1-2.1,10.1-6.3V257.9z"/>
	<path class="st0" d="M175.7,255.6c1.7,0,2.5-0.7,2.5-2.1c0-1.4-0.8-2.1-2.7-2.1H174c-6.6,0-9.9,2.1-9.9,6.3v11.6c0,1.5,1,2.2,3,2.2
		c2.2,0,3.1-0.8,3.1-2.2v-11.6c0-1.5,1.1-2.1,3.4-2.1H175.7z"/>
	<path class="st0" d="M156.9,255.6c1.8,0,2.8-0.7,2.8-2.1c0-1.4-1-2.1-2.8-2.1h-5.3v-3.8c0-1.4-1-2.2-3-2.2c-2.2,0-3.1,0.8-3.1,2.2
		v3.8h-0.3c-1.8,0-2.8,0.7-2.8,2c0,1.4,1,2.1,2.8,2.1h0.3v13.7c0,1.5,1,2.2,3.1,2.2c2,0,3.1-0.8,3.1-2.2v-13.7H156.9z"/>
	<path class="st0" d="M114.7,260.2h18.1v-2.7c0-1.7-1.3-2.5-3.9-2.5h-9.1c-3.4,0-5.1,0.9-5.1,2.6V260.2z M137.5,257.1
		c0-3.8-3.1-5.6-9.2-5.6h-7.6c-7.1,0-10.7,2.1-10.7,6.4v7.1c0,4.3,3.6,6.4,10.9,6.4h2.8c1.9,0,2.8-0.7,2.8-2.1c0-1.4-1-2.1-2.8-2.1
		h-3.7c-2.5,0-3.7-0.6-3.7-1.8v-1.6h18.5c2,0,2.9-0.8,2.9-2.3V257.1z"/>
	<path class="st0" d="M99.9,251.7c0-2-1.9-2.9-5.8-2.9H77.7v9.8h16.2c4,0,6.1-1,6.1-3V251.7z M104.9,251.4c0-4.1-3.8-6.2-11.3-6.2
		H75.2c-1.7,0-2.6,0.6-2.6,1.9v22.2c0,1.5,1.1,2.3,3.2,2.3c2.2,0,3.3-0.8,3.3-2.3v-7h14.4c7.6,0,11.5-2.2,11.5-6.5V251.4z"/>
	<path class="st0" d="M70.3,51.6c-5,2.4-11.5-1.7-3-7c16.9-10.7,52.5-19.9,59.6-5c10.3,21.7-77.4,52.5-41.1,79.5
		c6.5,4.9,17.4,7,26.1,6.1c12.7-1.4,20.6-8.3,47.3-6.5c-5.7-3.8-10.8-8.3-14.7-14.2l5.9-0.8l-17.7-17.7l5.5-0.4l-10.7-19.2l6,1.5
		l-5.9-16.9l5.1,1.3l-2.5-21.6l5.1,3l4.2-23.7l4.6,6.8L153.7,1c2.3,13.9,7.7,34.9,15,46.9l4-7.9c8.9,27.1,25.1,29,24.8,54.1
		l-0.3,23.9c6.4-2.3,10.7-8.1,13.7-14.9l0.1-7l-6.5-1.6l14.4-12.3l-13,5.9l13.9-17.9l-11.6,4.4l25.5-19.8l-21.3,10.7
		c10.7-9.9,20.1-18.6,30-21.3c20.6-5.6,37.9-3.5,53-0.3c9.4,4.8,8.8,15.5,5.4,23.2c-0.4,1,2.8,3.4,2.3,4.4c3.3,0,12.6-0.6,15.3,0.2
		c2.3,0.7,2.3,2.2,2.2,4.4c-0.2,3.5-1.9,8.2-3.5,10.2l-2.8,0.6l0.1,2l5,1.6l1.6,9.2c0.3,2.5,0.3,2.2-2.3,2.3l-16.1,0.4
		c-3.3,0-2.2,0.4-3-2.6c-0.7-2.5-2.1-3.7-6.6-2.1c-6,2.1-6.3,13.8,1.4,22.9c9.1,10.6,1.1,24.9,2.6,46.7l18,51.8l14,1.2
		c5.8,0.5,7.9,6.3,8.3,11.9l-30.8-0.7l-34.7-53c5.4-4.4,10.9-9.6,13.5-17c-12.7,20.3-28.8,26.7-52.3,27c2.4-3.6,4.5-7.4,7.8-10.1
		c16.7-13.9,30-29.9,13.7-55.6c6.1,11.5,8.4,23.7,1.8,36.1c-3.4,6.3-10,12.3-17.6,19.1c-6.8,6.1-14,25.5-13.2,38.7l9.3-1.3
		c5.6-0.8,8.3,5.1,7.5,9.7l-31.3,0.4l0.1-43c-0.5-14.9,0.9-15.3,13-28.8c-14,8.9-15.6,17.5-14.8,28.9c-18.7,2.4-33.5-10-56.4-12.1
		c21.9,2.3,5,19-7.8,33.5l4.5,8.5l8.7,0c5.9,0,10.1,6.4,9.5,10.5l-31.9,0c-13.3-23-6.2-23.6-3.5-48.3c0.5-0.8,0.9-1.7,1.5-2.5
		c4.6-7.1,11.8-12.9,21-18.1c-21.2,9.2-17.6,13.6-25.5,19.2c-24.5,17.4-46.2,25.1-51.3,37.6v6l5,0.4c7.4,0.6,6.5,7.9,6.4,11.8
		l-26.9,0l0-16.2c3.2-25.5,31.6-35.2,36.9-66l1.3-12.7c-29.1,1.4-49.1-26.2-20.6-52.7c9.5-8.8,26-20.5,32.8-28.5
		c7.3-8.7,6.8-15.7-7.9-13.1C97.2,40.6,86,44,70.3,51.6"/>
	<path class="st1" d="M374.8,241.3c-125.9-26.6-250.4-25.8-373.5,0C123.2,223.8,247.7,223.4,374.8,241.3"/>
	<path class="st1" d="M240.6,290.1h-3.2c-0.1-0.4-0.3-0.6-0.5-0.8c-0.2-0.2-0.5-0.2-0.8-0.2c-0.4,0-0.7,0.1-0.9,0.3
		c-0.2,0.2-0.4,0.4-0.4,0.7c0,0.2,0.1,0.4,0.3,0.6c0.2,0.2,0.7,0.4,1.5,0.6c1.3,0.3,2.1,0.6,2.7,0.9c0.5,0.3,0.9,0.6,1.3,1.1
		c0.3,0.5,0.5,1,0.5,1.7c0,1.2-0.5,2.1-1.4,2.9c-0.9,0.8-2.1,1.2-3.4,1.2c-0.8,0-1.6-0.1-2.3-0.4c-0.7-0.3-1.2-0.6-1.6-0.9
		c-0.4-0.4-0.7-0.8-0.9-1.2c-0.2-0.4-0.3-1-0.4-1.6h3.4c0.2,0.6,0.4,0.9,0.7,1.2c0.3,0.2,0.7,0.3,1.1,0.3c0.4,0,0.8-0.1,1.1-0.3
		c0.3-0.2,0.4-0.5,0.4-0.8c0-0.3-0.1-0.6-0.4-0.8c-0.3-0.2-0.8-0.4-1.6-0.7c-1.2-0.4-2-0.7-2.4-0.9c-0.6-0.3-1.1-0.7-1.4-1.2
		c-0.3-0.4-0.4-1-0.4-1.5c0-0.7,0.2-1.3,0.6-1.9c0.4-0.6,1-1,1.7-1.4c0.7-0.3,1.5-0.5,2.3-0.5c0.7,0,1.3,0.1,1.9,0.4
		c0.6,0.2,1,0.5,1.4,0.8c0.4,0.3,0.6,0.7,0.8,1.1C240.5,289.1,240.6,289.5,240.6,290.1 M217,298.6v-11.8h3v1
		c0.6-0.5,1.2-0.9,1.8-1.1c0.6-0.2,1.3-0.3,2-0.3c0.9,0,1.8,0.2,2.6,0.6c0.8,0.4,1.4,0.8,1.9,1.4c0.3,0.4,0.6,1,0.7,1.6
		c0.1,0.5,0.1,1.2,0.1,2.2v6.4h-3.3v-5.8c0-1.1-0.1-1.8-0.3-2.3c-0.2-0.5-0.5-0.8-0.9-1.1c-0.4-0.2-0.9-0.4-1.5-0.4
		c-0.6,0-1.2,0.1-1.7,0.4c-0.5,0.3-0.8,0.7-1,1.1c-0.2,0.5-0.3,1.3-0.3,2.4v5.6H217z M207.8,296.4c1.2,0,2.1-0.4,2.9-1.1
		c0.8-0.7,1.1-1.6,1.1-2.6c0-0.7-0.2-1.3-0.6-1.9c-0.4-0.6-0.9-1-1.5-1.4c-0.6-0.3-1.3-0.5-1.9-0.5c-0.6,0-1.3,0.2-1.9,0.5
		c-0.7,0.3-1.2,0.8-1.5,1.3c-0.4,0.6-0.6,1.2-0.6,1.9c0,0.7,0.2,1.3,0.6,1.9c0.4,0.6,0.9,1,1.5,1.3
		C206.4,296.3,207.1,296.4,207.8,296.4z M207.8,299c-1,0-1.9-0.2-2.8-0.5c-0.9-0.3-1.7-0.8-2.3-1.3c-0.6-0.6-1.2-1.2-1.5-1.8
		c-0.5-0.8-0.7-1.7-0.7-2.7c0-1.1,0.3-2.1,1-3.1c0.6-1,1.6-1.8,2.7-2.3c1.2-0.6,2.4-0.8,3.6-0.8c1.3,0,2.5,0.3,3.6,0.8
		c1.2,0.6,2,1.3,2.7,2.3c0.6,1,1,2,1,3.2c0,0.8-0.2,1.6-0.5,2.3c-0.3,0.7-0.7,1.3-1.3,1.8c-0.5,0.5-1.1,0.9-1.7,1.2
		c-0.6,0.3-1.2,0.5-1.9,0.7C209.1,298.9,208.5,299,207.8,299z M195.2,298.6v-11.8h3.3v11.8H195.2z M195.2,285.5v-2.6h3.3v2.6H195.2z
		 M188.6,298.6v-9.3H187v-2.5h1.6v-3.9h3.3v3.9h2v2.5h-2v9.3H188.6z M181.8,286.8h3.3v11.8h-3v-1.2h0c-0.5,0.6-1,1-1.5,1.2
		c-0.5,0.2-1.2,0.4-2,0.4c-1.1,0-2.1-0.2-3-0.7c-0.9-0.5-1.6-1.1-1.9-1.8c-0.4-0.8-0.6-1.9-0.6-3.5v-6.2h3.3v6
		c0,1.2,0.2,2.1,0.7,2.7c0.5,0.6,1.2,0.9,2.2,0.9c0.8,0,1.5-0.3,2-0.8c0.5-0.5,0.8-1.5,0.8-2.7V286.8z M167,298.6v-15.7h3.3v15.7
		H167z M157.8,296.4c1.2,0,2.1-0.4,2.9-1.1c0.8-0.7,1.1-1.6,1.1-2.6c0-0.7-0.2-1.3-0.6-1.9c-0.4-0.6-0.9-1-1.5-1.4
		c-0.6-0.3-1.3-0.5-1.9-0.5c-0.6,0-1.3,0.2-1.9,0.5c-0.7,0.3-1.2,0.8-1.5,1.3c-0.4,0.6-0.6,1.2-0.6,1.9c0,0.7,0.2,1.3,0.6,1.9
		c0.4,0.6,0.9,1,1.5,1.3C156.4,296.3,157.1,296.4,157.8,296.4z M157.8,299c-1,0-1.9-0.2-2.8-0.5c-0.9-0.3-1.7-0.8-2.3-1.3
		c-0.6-0.6-1.2-1.2-1.5-1.8c-0.5-0.8-0.7-1.7-0.7-2.7c0-1.1,0.3-2.1,1-3.1c0.6-1,1.6-1.8,2.7-2.3c1.2-0.6,2.4-0.8,3.6-0.8
		c1.3,0,2.5,0.3,3.6,0.8c1.2,0.6,2,1.3,2.7,2.3c0.6,1,1,2,1,3.2c0,0.8-0.2,1.6-0.5,2.3c-0.3,0.7-0.7,1.3-1.3,1.8
		c-0.5,0.5-1.1,0.9-1.7,1.2c-0.6,0.3-1.2,0.5-1.9,0.7C159.1,298.9,158.4,299,157.8,299z M136.9,294.1h3.6c0.1,0.6,0.3,1,0.6,1.3
		c0.5,0.5,1.1,0.8,1.9,0.8c0.7,0,1.3-0.2,1.8-0.6c0.5-0.4,0.7-0.9,0.7-1.5c0-0.4-0.1-0.8-0.3-1c-0.2-0.3-0.6-0.5-1-0.7
		c-0.3-0.1-1.1-0.4-2.6-0.9c-1-0.3-1.8-0.7-2.3-1.1c-0.5-0.4-0.9-0.8-1.2-1.4c-0.3-0.6-0.4-1.2-0.4-1.8c0-0.8,0.2-1.6,0.7-2.3
		c0.5-0.7,1.1-1.3,2-1.6c0.8-0.4,1.7-0.6,2.7-0.6c0.8,0,1.6,0.1,2.3,0.4c0.7,0.3,1.3,0.6,1.7,1c0.4,0.4,0.8,0.9,1,1.3
		c0.2,0.5,0.4,1,0.4,1.7h-3.5c-0.1-0.6-0.3-1-0.5-1.2c-0.3-0.4-0.8-0.5-1.5-0.5c-0.6,0-1.1,0.2-1.4,0.5c-0.4,0.3-0.5,0.7-0.5,1.2
		c0,0.5,0.2,0.9,0.6,1.2c0.3,0.2,1,0.5,2,0.8c1,0.3,1.8,0.6,2.2,0.8c0.7,0.3,1.3,0.7,1.7,1.1c0.4,0.4,0.7,0.9,0.9,1.4
		c0.2,0.5,0.3,1.1,0.3,1.8c0,1.7-0.7,2.9-2.2,3.9c-1.1,0.7-2.3,1-3.7,1c-0.7,0-1.4-0.1-2.1-0.3c-0.7-0.2-1.3-0.5-1.8-0.8
		c-0.5-0.3-0.9-0.7-1.3-1.1c-0.3-0.4-0.6-0.9-0.7-1.3C137.1,295.1,137,294.6,136.9,294.1z"/>
</g>
</svg>
